<svg width="377" height="382" viewBox="0 0 377 382" fill="none" xmlns="http://www.w3.org/2000/svg">
<path d="M59.507 144.485C77.507 120.985 153.007 17.9851 153.007 17.9851C153.007 17.9851 180.626 63.5048 193.684 97.9843C227.292 67.5148 294.701 30.3705 294.701 30.3705C294.701 30.3705 316.432 125.608 324.505 153.485C332.578 181.362 384.539 229.489 359.726 291.369C334.913 353.249 246.259 378.874 165.507 369.485C93.9204 361.161 33.1334 319.224 14.507 268.985C-4.45795 217.833 41.507 167.985 59.507 144.485Z" fill="black" stroke="black" stroke-width="20" stroke-linecap="round"/>
<mask id="path-2-outside-1_1_34" maskUnits="userSpaceOnUse" x="46.8433" y="138.796" width="116.147" height="174.069" fill="black">
<rect fill="white" x="46.8433" y="138.796" width="116.147" height="174.069"/>
<path d="M117.377 163.554C132.519 167.182 139.098 197.904 132.07 232.174C125.041 266.444 107.068 291.285 91.9254 287.658C76.7828 284.03 70.2046 253.307 77.2329 219.036C84.2611 184.766 102.234 159.926 117.377 163.554Z"/>
</mask>
<path d="M117.377 163.554C132.519 167.182 139.098 197.904 132.07 232.174C125.041 266.444 107.068 291.285 91.9254 287.658C76.7828 284.03 70.2046 253.307 77.2329 219.036C84.2611 184.766 102.234 159.926 117.377 163.554Z" fill="black"/>
<path d="M117.377 163.554L120.391 148.86L120.39 148.86L117.377 163.554ZM132.07 232.174L146.657 235.669L146.657 235.669L132.07 232.174ZM91.9254 287.658L88.9119 302.352L88.9121 302.352L91.9254 287.658ZM77.2329 219.036L62.6457 215.542L62.6457 215.542L77.2329 219.036ZM117.377 163.554L114.363 178.248C113.41 178.02 113.698 177.566 114.816 179.232C115.996 180.988 117.422 184.19 118.485 189.156C120.603 199.048 120.675 213.111 117.482 228.68L132.07 232.174L146.657 235.669C150.492 216.968 150.789 198.534 147.589 183.591C145.994 176.14 143.375 168.838 139.282 162.743C135.128 156.557 128.915 150.902 120.391 148.86L117.377 163.554ZM132.07 232.174L117.482 228.68C114.29 244.248 108.726 256.961 102.939 264.96C100.034 268.975 97.4897 271.226 95.7339 272.279C94.0685 273.278 93.9853 272.735 94.9387 272.963L91.9254 287.658L88.9121 302.352C97.4368 304.394 105.279 302.107 111.462 298.397C117.555 294.742 122.782 289.321 127.142 283.296C135.884 271.213 142.821 254.371 146.657 235.669L132.07 232.174ZM91.9254 287.658L94.9389 272.963C95.8923 273.192 95.6047 273.646 94.486 271.98C93.3065 270.223 91.8805 267.022 90.8172 262.056C88.6991 252.163 88.6272 238.1 91.82 222.531L77.2329 219.036L62.6457 215.542C58.8103 234.243 58.5134 252.677 61.7129 267.62C63.3084 275.072 65.927 282.373 70.0201 288.469C74.174 294.655 80.3872 300.309 88.9119 302.352L91.9254 287.658ZM77.2329 219.036L91.82 222.531C95.0129 206.963 100.576 194.25 106.363 186.252C109.269 182.236 111.813 179.986 113.568 178.933C115.234 177.934 115.317 178.477 114.363 178.248L117.377 163.554L120.39 148.86C111.866 146.818 104.024 149.105 97.8406 152.814C91.7479 156.469 86.5201 161.891 82.1608 167.915C73.4186 179.998 66.4811 196.84 62.6457 215.542L77.2329 219.036Z" fill="white" mask="url(#path-2-outside-1_1_34)"/>
<mask id="path-4-outside-2_1_34" maskUnits="userSpaceOnUse" x="155.237" y="152.161" width="113.689" height="174.05" fill="black">
<rect fill="white" x="155.237" y="152.161" width="113.689" height="174.05"/>
<path d="M222.157 175.972C238.238 179.279 246.679 210.027 241.009 244.649C235.34 279.271 217.707 304.658 201.625 301.351C185.544 298.045 177.103 267.297 182.773 232.675C188.442 198.052 206.075 172.666 222.157 175.972Z"/>
</mask>
<path d="M222.157 175.972C238.238 179.279 246.679 210.027 241.009 244.649C235.34 279.271 217.707 304.658 201.625 301.351C185.544 298.045 177.103 267.297 182.773 232.675C188.442 198.052 206.075 172.666 222.157 175.972Z" fill="black"/>
<path d="M222.157 175.972L224.581 161.17L224.581 161.17L222.157 175.972ZM241.009 244.649L255.702 247.67L255.702 247.67L241.009 244.649ZM201.625 301.351L199.201 316.154L199.201 316.154L201.625 301.351ZM182.773 232.675L168.08 229.653L168.08 229.654L182.773 232.675ZM222.157 175.972L219.733 190.775C218.696 190.562 222.349 190.973 225.405 202.105C228.104 211.936 228.878 225.986 226.317 241.628L241.009 244.649L255.702 247.67C258.81 228.69 258.199 210.054 254.075 195.029C250.307 181.306 241.699 164.689 224.581 161.17L222.157 175.972ZM241.009 244.649L226.317 241.628C223.755 257.27 218.58 270.096 212.942 278.213C206.558 287.405 203.013 286.335 204.049 286.548L201.625 301.351L199.201 316.154C216.32 319.674 229.632 307.565 237.502 296.234C246.118 283.829 252.594 266.651 255.702 247.67L241.009 244.649ZM201.625 301.351L204.05 286.548C205.086 286.762 201.434 286.351 198.377 275.218C195.679 265.387 194.904 251.337 197.465 235.696L182.773 232.675L168.08 229.654C164.972 248.634 165.583 267.269 169.707 282.294C173.475 296.018 182.083 312.634 199.201 316.154L201.625 301.351ZM182.773 232.675L197.465 235.696C200.027 220.054 205.202 207.228 210.84 199.111C217.225 189.919 220.769 190.988 219.733 190.775L222.157 175.972L224.581 161.17C207.462 157.65 194.15 169.759 186.28 181.09C177.664 193.495 171.188 210.673 168.08 229.653L182.773 232.675Z" fill="white" mask="url(#path-4-outside-2_1_34)"/>
</svg>
