<svg width="500" height="500" viewBox="0 0 500 500" fill="none" xmlns="http://www.w3.org/2000/svg">
<rect width="500" height="500" fill="#8EA06C"/>
<path d="M121.502 199.5C139.502 176 215.002 73 215.002 73C215.002 73 242.62 118.52 255.679 152.999C289.287 122.53 356.696 85.3854 356.696 85.3854C356.696 85.3854 378.427 180.623 386.5 208.5C394.573 236.377 446.534 284.504 421.721 346.384C396.907 408.264 308.254 433.889 227.502 424.5C155.915 416.176 95.1283 374.239 76.5019 324C57.5369 272.848 103.502 223 121.502 199.5Z" fill="black"/>
<path d="M121.502 199.5C139.502 176 215.002 73 215.002 73C215.002 73 295.634 205.894 246.495 189.54C197.356 173.186 356.696 85.3854 356.696 85.3854C356.696 85.3854 378.427 180.623 386.5 208.5C394.573 236.377 446.534 284.504 421.721 346.384C396.907 408.264 308.254 433.889 227.502 424.5C155.915 416.176 95.1283 374.239 76.5019 324C57.5369 272.848 103.502 223 121.502 199.5Z" stroke="black" stroke-width="20" stroke-linecap="round"/>
<mask id="path-3-outside-1_1_12" maskUnits="userSpaceOnUse" x="108.838" y="193.811" width="116.147" height="174.069" fill="black">
<rect fill="white" x="108.838" y="193.811" width="116.147" height="174.069"/>
<path d="M179.372 218.569C194.514 222.197 201.093 252.919 194.065 287.189C187.036 321.459 169.063 346.3 153.92 342.673C138.778 339.045 132.199 308.322 139.228 274.051C146.256 239.781 164.229 214.941 179.372 218.569Z"/>
</mask>
<path d="M179.372 218.569C194.514 222.197 201.093 252.919 194.065 287.189C187.036 321.459 169.063 346.3 153.92 342.673C138.778 339.045 132.199 308.322 139.228 274.051C146.256 239.781 164.229 214.941 179.372 218.569Z" fill="black"/>
<path d="M179.372 218.569L182.386 203.875L182.385 203.875L179.372 218.569ZM194.065 287.189L208.652 290.684L208.652 290.684L194.065 287.189ZM153.92 342.673L150.907 357.367L150.907 357.367L153.92 342.673ZM139.228 274.051L124.641 270.556L124.641 270.556L139.228 274.051ZM179.372 218.569L176.358 233.263C175.405 233.035 175.692 232.581 176.811 234.247C177.991 236.003 179.417 239.205 180.48 244.171C182.598 254.063 182.67 268.126 179.477 283.694L194.065 287.189L208.652 290.684C212.487 271.983 212.784 253.549 209.584 238.606C207.989 231.154 205.37 223.853 201.277 217.758C197.123 211.572 190.91 205.917 182.386 203.875L179.372 218.569ZM194.065 287.189L179.477 283.694C176.285 299.263 170.721 311.976 164.934 319.974C162.029 323.99 159.485 326.24 157.729 327.294C156.063 328.293 155.98 327.75 156.934 327.978L153.92 342.673L150.907 357.367C159.432 359.409 167.274 357.121 173.457 353.412C179.55 349.757 184.777 344.336 189.137 338.311C197.879 326.228 204.816 309.386 208.652 290.684L194.065 287.189ZM153.92 342.673L156.934 327.978C157.887 328.207 157.6 328.661 156.481 326.995C155.301 325.238 153.875 322.037 152.812 317.07C150.694 307.178 150.622 293.115 153.815 277.546L139.228 274.051L124.641 270.556C120.805 289.258 120.508 307.692 123.708 322.635C125.303 330.087 127.922 337.388 132.015 343.484C136.169 349.669 142.382 355.324 150.907 357.367L153.92 342.673ZM139.228 274.051L153.815 277.546C157.008 261.978 162.571 249.265 168.358 241.267C171.263 237.251 173.807 235.001 175.563 233.948C177.228 232.949 177.312 233.492 176.358 233.263L179.372 218.569L182.385 203.875C173.861 201.832 166.019 204.12 159.836 207.829C153.743 211.484 148.515 216.905 144.156 222.93C135.414 235.013 128.476 251.855 124.641 270.556L139.228 274.051Z" fill="white" mask="url(#path-3-outside-1_1_12)"/>
<mask id="path-5-outside-2_1_12" maskUnits="userSpaceOnUse" x="217.232" y="207.176" width="113.689" height="174.05" fill="black">
<rect fill="white" x="217.232" y="207.176" width="113.689" height="174.05"/>
<path d="M284.152 230.987C300.233 234.294 308.674 265.042 303.004 299.664C297.335 334.286 279.702 359.673 263.62 356.366C247.539 353.059 239.098 322.312 244.768 287.689C250.437 253.067 268.07 227.681 284.152 230.987Z"/>
</mask>
<path d="M284.152 230.987C300.233 234.294 308.674 265.042 303.004 299.664C297.335 334.286 279.702 359.673 263.62 356.366C247.539 353.059 239.098 322.312 244.768 287.689C250.437 253.067 268.07 227.681 284.152 230.987Z" fill="black"/>
<path d="M284.152 230.987L286.576 216.184L286.576 216.184L284.152 230.987ZM303.004 299.664L317.697 302.685L317.697 302.685L303.004 299.664ZM263.62 356.366L261.196 371.169L261.196 371.169L263.62 356.366ZM244.768 287.689L230.075 284.668L230.075 284.668L244.768 287.689ZM284.152 230.987L281.728 245.79C280.691 245.577 284.344 245.987 287.4 257.12C290.098 266.951 290.873 281.001 288.312 296.643L303.004 299.664L317.697 302.685C320.805 283.704 320.194 265.069 316.07 250.044C312.302 236.321 303.694 219.704 286.576 216.184L284.152 230.987ZM303.004 299.664L288.312 296.643C285.75 312.285 280.575 325.111 274.937 333.228C268.552 342.42 265.008 341.35 266.044 341.563L263.62 356.366L261.196 371.169C278.315 374.689 291.627 362.58 299.497 351.249C308.113 338.844 314.589 321.666 317.697 302.685L303.004 299.664ZM263.62 356.366L266.044 341.563C267.081 341.777 263.428 341.366 260.372 330.233C257.674 320.402 256.899 306.352 259.46 290.711L244.768 287.689L230.075 284.668C226.967 303.649 227.578 322.284 231.702 337.309C235.47 351.032 244.078 367.649 261.196 371.169L263.62 356.366ZM244.768 287.689L259.46 290.711C262.022 275.069 267.197 262.242 272.835 254.126C279.219 244.934 282.764 246.003 281.728 245.79L284.152 230.987L286.576 216.184C269.457 212.665 256.145 224.774 248.275 236.104C239.659 248.51 233.183 265.688 230.075 284.668L244.768 287.689Z" fill="white" mask="url(#path-5-outside-2_1_12)"/>
</svg>
