<svg width="1255" height="1243" viewBox="0 0 1255 1243" fill="none" xmlns="http://www.w3.org/2000/svg">
<path d="M202.961 545.633C246.634 465.642 338.26 116.355 338.26 116.355C338.26 116.355 539.497 292.963 616.79 400.079C658.721 274.469 798.259 45.0035 798.259 45.0035C798.259 45.0035 950.968 333.439 1012.28 420.098C1073.6 506.757 1239.94 619.577 1193.65 819.551C1147.36 1019.52 964.797 1118.66 707.375 1158.59C488.112 1192.6 215.466 1088.11 135.088 944.055C53.2499 797.378 159.287 625.624 202.961 545.633Z" fill="black" stroke="black" stroke-width="20" stroke-linecap="round"/>
<mask id="path-2-outside-1_33_9" maskUnits="userSpaceOnUse" x="392.668" y="558.577" width="305.956" height="480.916" fill="black">
<rect fill="white" x="392.668" y="558.577" width="305.956" height="480.916"/>
<path d="M517.585 605.552C565.235 600.283 616.308 682.433 631.66 789.04C647.012 895.647 620.829 986.341 573.179 991.611C525.529 996.881 474.457 914.731 459.105 808.124C443.753 701.517 469.936 610.822 517.585 605.552Z"/>
</mask>
<path d="M517.585 605.552C565.235 600.283 616.308 682.433 631.66 789.04C647.012 895.647 620.829 986.341 573.179 991.611C525.529 996.881 474.457 914.731 459.105 808.124C443.753 701.517 469.936 610.822 517.585 605.552Z" fill="black"/>
<path d="M517.585 605.552L512.739 571.9L512.739 571.9L517.585 605.552ZM631.66 789.04L665.454 785.302V785.302L631.66 789.04ZM573.179 991.611L578.025 1025.26L578.025 1025.26L573.179 991.611ZM459.105 808.124L425.311 811.861V811.861L459.105 808.124ZM517.585 605.552L522.432 639.205C523.365 639.102 526.829 639.007 533.587 643.977C540.544 649.094 549.03 658.285 557.831 672.441C575.384 700.674 590.707 743.061 597.866 792.777L631.66 789.04L665.454 785.302C657.261 728.411 639.372 676.42 615.638 638.243C603.795 619.195 589.619 602.174 573.119 590.038C556.42 577.756 535.63 569.368 512.739 571.9L517.585 605.552ZM631.66 789.04L597.866 792.777C605.025 842.493 602.199 886.888 593.201 918.057C588.689 933.685 583.074 944.436 577.786 950.907C572.649 957.193 569.267 957.855 568.333 957.958L573.179 991.611L578.025 1025.26C600.917 1022.73 618.676 1010.08 631.37 994.548C643.913 979.2 652.819 959.627 658.89 938.597C671.057 896.45 673.647 842.193 665.454 785.302L631.66 789.04ZM573.179 991.611L568.333 957.958C567.4 958.061 563.936 958.157 557.178 953.186C550.221 948.07 541.734 938.878 532.933 924.722C515.381 896.489 500.058 854.102 492.899 804.386L459.105 808.124L425.311 811.861C433.503 868.752 451.393 920.744 475.127 958.92C486.97 977.969 501.145 994.99 517.646 1007.13C534.345 1019.41 555.134 1027.8 578.025 1025.26L573.179 991.611ZM459.105 808.124L492.899 804.386C485.739 754.67 488.566 710.276 497.564 679.107C502.076 663.478 507.69 652.727 512.979 646.256C518.116 639.97 521.498 639.309 522.432 639.205L517.585 605.552L512.739 571.9C489.848 574.431 472.089 587.082 459.395 602.615C446.852 617.963 437.946 637.537 431.875 658.567C419.708 700.714 417.118 754.97 425.311 811.861L459.105 808.124Z" fill="white" mask="url(#path-2-outside-1_33_9)"/>
<mask id="path-4-outside-2_33_9" maskUnits="userSpaceOnUse" x="689.116" y="514.683" width="327.497" height="485.829" fill="black">
<rect fill="white" x="689.116" y="514.683" width="327.497" height="485.829"/>
<path d="M819.334 564.467C869.461 557.964 924.867 639.001 943.087 745.468C961.306 851.935 935.44 943.515 885.312 950.019C835.184 956.522 779.778 875.484 761.558 769.017C743.339 662.55 769.206 570.97 819.334 564.467Z"/>
</mask>
<path d="M819.334 564.467C869.461 557.964 924.867 639.001 943.087 745.468C961.306 851.935 935.44 943.515 885.312 950.019C835.184 956.522 779.778 875.484 761.558 769.017C743.339 662.55 769.206 570.97 819.334 564.467Z" fill="black"/>
<path d="M819.334 564.467L813.599 530.954L813.599 530.954L819.334 564.467ZM943.087 745.468L976.804 741.094L976.804 741.094L943.087 745.468ZM885.312 950.019L891.047 983.531L891.048 983.531L885.312 950.019ZM761.558 769.017L727.841 773.392L727.841 773.392L761.558 769.017ZM819.334 564.467L825.068 597.98C829.301 597.431 844.391 600.529 865.068 630.77C884.017 658.486 900.906 700.389 909.369 749.842L943.087 745.468L976.804 741.094C967.048 684.081 947.124 632.232 921.284 594.438C897.171 559.17 859.494 525.001 813.599 530.954L819.334 564.467ZM943.087 745.468L909.369 749.842C917.832 799.296 915.707 843.665 906.86 874.987C897.207 909.163 883.81 915.957 879.577 916.506L885.312 950.019L891.048 983.531C936.943 977.577 961.542 935.329 972.8 895.472C984.863 852.762 986.561 798.107 976.804 741.094L943.087 745.468ZM885.312 950.019L879.577 916.506C875.345 917.055 860.254 913.957 839.578 883.715C820.628 856 803.739 814.097 795.276 764.643L761.558 769.017L727.841 773.392C737.597 830.405 757.521 882.254 783.362 920.048C807.475 955.316 845.152 989.485 891.047 983.531L885.312 950.019ZM761.558 769.017L795.276 764.643C786.813 715.19 788.938 670.82 797.785 639.499C807.438 605.323 820.836 598.529 825.069 597.98L819.334 564.467L813.599 530.954C767.703 536.908 743.103 579.156 731.846 619.013C719.782 661.724 718.084 716.378 727.841 773.392L761.558 769.017Z" fill="white" mask="url(#path-4-outside-2_33_9)"/>
</svg>
