<svg width="560" height="80" viewBox="0 0 560 80" fill="none" xmlns="http://www.w3.org/2000/svg">
<path d="M0 80V0H16V16H32V32H48V48H32V32H16V80H0ZM64 80V32H48V16H64V0H80V80H64ZM112 80V0H160V16H128V32H160V48H128V64H160V80H112Z" fill="black"/>
<path d="M192 80V0H208V16H224V32H240V48H224V32H208V80H192ZM256 80V32H240V16H256V0H272V80H256ZM320 80V64H304V16H320V0H352V16H368V64H352V80H320ZM320 63.36H352V16.64H320V63.36ZM400 80V0H448V16H464V32H448V64H464V80H448V64H432V48H416V80H400ZM416 32H447.36V16H416V32ZM496 80V16H512V0H544V16H560V80H544V48H512V80H496ZM512 32H544V16.64H512V32Z" fill="#EAF2DC"/>
</svg>
