<svg width="486" height="898" viewBox="0 0 486 898" fill="none" xmlns="http://www.w3.org/2000/svg">
<path d="M67.7044 507.365L9.37432 521.423H9.37433L67.7044 507.365ZM371.108 862.75C384.852 892.903 420.436 906.205 450.589 892.461C480.742 878.718 494.044 843.133 480.301 812.98L425.704 837.865L371.108 862.75ZM288.204 59.3652L279.5 1.52588e-05C162.754 17.1183 86.63 117.823 45.652 215.348C3.95211 314.591 -11.7798 433.645 9.37432 521.423L67.7044 507.365L126.034 493.308C112.389 436.686 121.657 344.239 156.283 261.833C191.63 177.708 243.156 126.612 296.909 118.73L288.204 59.3652ZM67.7044 507.365L9.37433 521.423C38.3 641.448 133.106 689.474 204.921 725.929C281.99 765.051 339.924 794.332 371.108 862.75L425.704 837.865L480.301 812.98C428.986 700.398 329.669 654.679 259.238 618.926C183.553 580.506 140.608 553.782 126.034 493.308L67.7044 507.365Z" fill="black"/>
</svg>
